<svg xmlns="http://www.w3.org/2000/svg" viewBox="0 0 211.27 116.96"><defs><style>.cls-1{fill:none;stroke:#1d1d1b;stroke-miterlimit:10;stroke-width:2px;}.cls-2{fill:#010101;}</style></defs><g id="Warstwa_2" data-name="Warstwa 2"><g id="base_P"><g id="Warstwa_2-2" data-name="Warstwa 2"><g id="base"><polyline class="cls-1" points="67.82 84.68 102.17 103.62 154.56 72.64 154.56 72.64"/><line class="cls-1" x1="186.59" y1="91.09" x2="153.64" y2="72.71"/><line class="cls-1" x1="149.68" y1="74.82" x2="149.13" y2="37.09"/><line class="cls-1" x1="158.05" y1="74.86" x2="157.5" y2="37.14"/></g></g><path id="text" class="cls-2" d="M211.27,103.16q0,6.61-2.9,10.22a11,11,0,0,1-16.22,0c-2-2.4-3-5.79-3-10.14V95.77q0-6.6,2.93-10.23a10.88,10.88,0,0,1,16.27,0q2.93,3.61,2.92,10.29Zm-2.7-7.4c0-3.74-.72-6.54-2.16-8.42a8.21,8.21,0,0,0-11.59-.73,10.05,10.05,0,0,0-.73.73c-1.47,1.83-2.22,4.58-2.25,8.23v7.59q0,5.63,2.22,8.45a7.43,7.43,0,0,0,6.21,2.79,7.3,7.3,0,0,0,6.2-2.81q2.11-2.82,2.12-8.47Z"/><path id="text-2" data-name="text" class="cls-2" d="M164.67,20.68q0,6.43-2.89,10a11.11,11.11,0,0,1-16.21,0q-3-3.51-3-9.88V13.53q0-6.43,2.93-10a11.07,11.07,0,0,1,16.27,0q2.89,3.56,2.9,10.06ZM162,13.48q0-5.46-2.16-8.2a8.38,8.38,0,0,0-12.33,0c-1.47,1.78-2.22,4.46-2.25,8v7.44c0,3.65.74,6.4,2.23,8.23a7.5,7.5,0,0,0,6.19,2.75,7.42,7.42,0,0,0,6.2-2.73Q162,26.19,162,20.68Z"/><g id="text-3" data-name="text"><path d="M21.47,85H18.8L2.7,55.94V85H0V50.87H2.7L18.82,80V50.87h2.65Z"/><path d="M51,85h-2.7V68.66h-16V85H29.58V50.87h2.67V66.18h16V50.87H51Z"/><path d="M65.66,85h-9V83.88l4.85-6.54a15.25,15.25,0,0,0,1.7-2.77,5.42,5.42,0,0,0,.48-2.16,3.93,3.93,0,0,0-.76-2.55,2.58,2.58,0,0,0-2.13-.94,2.75,2.75,0,0,0-2.3,1.1,4.47,4.47,0,0,0-.85,2.84H56.3a5.52,5.52,0,0,1,1.23-3.69,4,4,0,0,1,3.22-1.47,4,4,0,0,1,3.08,1.21A4.74,4.74,0,0,1,65,72.28a9,9,0,0,1-1.85,4.8l-.75,1.07L58.2,83.78h7.46Z"/></g></g></g></svg>