<svg xmlns="http://www.w3.org/2000/svg" xmlns:v="https://vecta.io/nano" viewBox="0 -0.03 187.59 104.65"><g fill="none" stroke="#1d1d1b" stroke-miterlimit="10" stroke-width="2"><path d="M67.82 84.68l34.35 18.94 52.39-30.98"></path><path d="M186.59 91.09l-32.95-18.38m-3.96 2.11l-.55-37.73"></path><path d="M158.05 74.86l-.55-37.72"></path></g><path d="M164.67,20.68q0,6.43-2.89,10a11.11,11.11,0,0,1-16.21,0q-3-3.51-3-9.88V13.53q0-6.43,2.93-10a11.07,11.07,0,0,1,16.27,0q2.89,3.56,2.9,10.06ZM162,13.48q0-5.46-2.16-8.2a8.38,8.38,0,0,0-12.33,0c-1.47,1.78-2.22,4.46-2.25,8v7.44c0,3.65.74,6.4,2.23,8.23a7.5,7.5,0,0,0,6.19,2.75,7.42,7.42,0,0,0,6.2-2.73Q162,26.19,162,20.68Z" fill="#010101"></path><path d="M21.47 85H18.8L2.7 55.94V85H0V50.87h2.7L18.82 80V50.87h2.65zM51 85h-2.7V68.66h-16V85h-2.72V50.87h2.67v15.31h16V50.87H51zm14.66 0h-9v-1.12l4.85-6.54a15.25 15.25 0 0 0 1.7-2.77 5.42 5.42 0 0 0 .48-2.16 3.93 3.93 0 0 0-.76-2.55 2.58 2.58 0 0 0-2.13-.94 2.75 2.75 0 0 0-2.3 1.1 4.47 4.47 0 0 0-.85 2.84H56.3a5.52 5.52 0 0 1 1.23-3.69 4 4 0 0 1 3.22-1.47 4 4 0 0 1 3.08 1.21A4.74 4.74 0 0 1 65 72.28a9 9 0 0 1-1.85 4.8l-.75 1.07-4.2 5.63h7.46z"></path></svg>