<svg id="Warstwa_1" data-name="Warstwa 1" xmlns="http://www.w3.org/2000/svg" viewBox="0 0 60.01 149.85"><defs><style>.cls-1{fill:none;stroke:#1e1e1c;stroke-miterlimit:10;stroke-width:2px;}.cls-2{fill:#1d1d1b;}</style></defs><g id="Warstwa_2" data-name="Warstwa 2"><g id="C"><g id="Warstwa_2-2" data-name="Warstwa 2-2"><g id="amino"><polyline class="cls-1" points="27.93 0.5 58.85 53.5 26.27 107.48"/></g></g><g id="text"><path class="cls-2" d="M21.4,115.27H18.7v16.36H2.7V115.29H0v34.1H2.67v-15.3h16v15.3h2.7Z"/><path class="cls-2" d="M45.54,123.63a6.09,6.09,0,0,1-1.63,4.5c-1.09,1.09-3.11,2.14-6.08,3.14a19.18,19.18,0,0,0-6.54,3.36A8.06,8.06,0,0,0,28.55,141a8.25,8.25,0,0,0,2.69,6.37,10,10,0,0,0,7,2.46A9.54,9.54,0,0,0,45.37,147a10.2,10.2,0,0,0,2.72-7.35H45.4a8,8,0,0,1-1.94,5.57,6.77,6.77,0,0,1-5.26,2.12,7.2,7.2,0,0,1-5.09-1.69,5.91,5.91,0,0,1-1.87-4.52A5.5,5.5,0,0,1,33,136.86a15.1,15.1,0,0,1,5.6-2.92,23.84,23.84,0,0,0,5.81-2.65,8.66,8.66,0,0,0,2.91-3.22,9.55,9.55,0,0,0,.94-4.36,8.27,8.27,0,0,0-2.71-6.46,10.24,10.24,0,0,0-7.16-2.45A11.93,11.93,0,0,0,32.92,116a9.19,9.19,0,0,0-3.87,3.54A10.31,10.31,0,0,0,27.66,125h2.67a7.37,7.37,0,0,1,2.18-5.67,8.13,8.13,0,0,1,5.88-2.06A7.48,7.48,0,0,1,43.58,119,5.84,5.84,0,0,1,45.54,123.63Z"/></g></g></g></svg>