<svg id="Warstwa_1" data-name="Warstwa 1" xmlns="http://www.w3.org/2000/svg" viewBox="0 0 143.79 212.25"><defs><style>.cls-1{fill:none;stroke:#1d1d1b;stroke-miterlimit:10;stroke-width:2px;}</style></defs><g id="Warstwa_2" data-name="Warstwa 2"><g id="H"><g id="Warstwa_2-2" data-name="Warstwa 2-2"><g id="amino"><polyline class="cls-1" points="81.05 0.49 111.97 55.16 81.05 110.99 20.31 115.33 13.48 154.16"/><line class="cls-1" x1="96.51" y1="143.16" x2="81.05" y2="110.99"/><line class="cls-1" x1="73.7" y1="123.33" x2="31.09" y2="126.33"/><polyline class="cls-1" points="86.98 186.99 60.98 210.99 29.98 191.16"/><line class="cls-1" x1="37.24" y1="183.28" x2="58.48" y2="196.83"/></g></g><g id="text"><path d="M114.28,149.94h-2.67L95.5,179V149.93H92.81v34.13H95.5L111.63,155v29.07h2.65Z"/><path d="M143.79,149.94h-2.7v16.33h-16V149.94h-2.67v34.12h2.67v-15.3h16v15.3h2.7Z"/></g><g id="text-2"><path d="M21.47,160.37H18.8L2.7,189.44V160.37H0V194.5H2.7l16.12-29.11V194.5h2.65Z"/></g></g></g></svg>