<svg id="Warstwa_1" data-name="Warstwa 1" xmlns="http://www.w3.org/2000/svg" viewBox="0 0 68.63 283.01"><defs><style>.cls-1{fill:none;stroke:#1d1d1b;stroke-miterlimit:10;stroke-width:2px;}</style></defs><g id="Warstwa_2" data-name="Warstwa 2"><g id="K"><g id="Warstwa_2-2" data-name="Warstwa 2-2"><g id="amino"><polyline class="cls-1" points="1.16 0.5 32.08 53.5 1.16 106.38 32.08 159.61 1.16 214.61 16.62 241.94"/></g></g><g id="text"><path d="M24.83,248.89H22.16L6.06,278V248.89H3.36V283h2.7L22.18,253.9V283h2.65Z"/><path d="M54.34,248.89h-2.7v16.33h-16V248.89h-2.7V283h2.67v-15.3h16V283h2.7Z"/><path d="M62.59,258.19h1.28a3.12,3.12,0,0,1,2.31.91,3.3,3.3,0,0,1,.88,2.4,3.87,3.87,0,0,1-.76,2.56,2.7,2.7,0,0,1-2.15.9,2.78,2.78,0,0,1-2.2-1,3.74,3.74,0,0,1-.84-2.53h-1.3a5.07,5.07,0,0,0,.55,2.41,4.14,4.14,0,0,0,1.55,1.69,4.2,4.2,0,0,0,2.24.61,4,4,0,0,0,3.07-1.25,5,5,0,0,0,1.15-3.48,4.23,4.23,0,0,0-.67-2.3,4,4,0,0,0-1.77-1.48,3.75,3.75,0,0,0,2-1.48,4.67,4.67,0,0,0,.7-2.62A5,5,0,0,0,67.41,250a4.14,4.14,0,0,0-3.23-1.35,4.66,4.66,0,0,0-2.34.6,4.1,4.1,0,0,0-1.65,1.7,5.14,5.14,0,0,0-.58,2.55h1.3a3.71,3.71,0,0,1,.91-2.61,3.32,3.32,0,0,1,4.68-.07,3.94,3.94,0,0,1,.82,2.69A3.14,3.14,0,0,1,64.58,257a3,3,0,0,1-.73,0H62.59Z"/></g></g></g></svg>