<svg id="Warstwa_1" data-name="Warstwa 1" xmlns="http://www.w3.org/2000/svg" viewBox="0 0 112.66 176.71"><defs><style>.cls-1{fill:none;stroke:#1e1e1c;stroke-miterlimit:10;stroke-width:2px;}.cls-2{fill:#010202;}.cls-3{fill:#010101;}</style></defs><g id="Warstwa_2" data-name="Warstwa 2"><g id="N"><g id="Warstwa_2-2" data-name="Warstwa 2-2"><g id="amino"><polyline class="cls-1" points="32.85 138.34 51.78 107.33 51.78 107.33 20.86 53.34 51.78 0.51"/><line class="cls-1" x1="49.22" y1="103.3" x2="86.94" y2="102.51"/><line class="cls-1" x1="49.22" y1="111.67" x2="86.94" y2="110.87"/></g></g><path id="text" class="cls-2" d="M112.66,111.28q0,6.6-2.9,10.22a11,11,0,0,1-15.54.67c-.24-.21-.46-.44-.68-.67-2-2.4-3-5.79-3-10.14v-7.43q0-6.6,2.93-10.23a10.87,10.87,0,0,1,15.36-.92,11.29,11.29,0,0,1,.91.92q2.92,3.6,2.92,10.29Zm-2.7-7.4c0-3.74-.72-6.54-2.16-8.42a8.21,8.21,0,0,0-11.59-.74h0a6.29,6.29,0,0,0-.73.73c-1.47,1.83-2.22,4.58-2.25,8.23v7.59q0,5.63,2.22,8.45a7.48,7.48,0,0,0,6.21,2.79,7.37,7.37,0,0,0,6.2-2.81c1.41-1.88,2.11-4.7,2.12-8.47Z"/><g id="text-2"><path class="cls-3" d="M21.47,142.59H18.8L2.7,171.65V142.59H0v34.12H2.7L18.82,147.6v29.11h2.65Z"/><path class="cls-3" d="M51,142.59H48.3v16.33h-16V142.59H29.58v34.12h2.67v-15.3h16v15.3H51Z"/><path class="cls-3" d="M65.66,142.59h-9v1.11l4.85,6.54a15.44,15.44,0,0,1,1.7,2.78,5.27,5.27,0,0,1,.48,2.15,4,4,0,0,1-.76,2.55,2.62,2.62,0,0,1-2.13,1,2.81,2.81,0,0,1-2.3-1.1,4.47,4.47,0,0,1-.85-2.84H56.3a5.58,5.58,0,0,0,1.23,3.69,4.38,4.38,0,0,0,6.17.37l.13-.12A4.73,4.73,0,0,0,65,155.3a9,9,0,0,0-1.85-4.79l-.75-1.08-4.17-5.62h7.46Z"/></g></g></g></svg>