<svg xmlns="http://www.w3.org/2000/svg" viewBox="0 0 174.28 265.16"><defs><style>.cls-1,.cls-2,.cls-3,.cls-4{fill:none;stroke:#1e1e1c;stroke-miterlimit:10;stroke-width:2px;}.cls-2{stroke-dasharray:5.25 5.25;}.cls-3{stroke-dasharray:6.86 6.86;}.cls-4{stroke-dasharray:5.6 5.6;}.cls-5{fill:#010101;}</style></defs><g id="Warstwa_2" data-name="Warstwa 2"><g id="W"><g id="Warstwa_2-2" data-name="Warstwa 2"><g id="amino"><polyline class="cls-1" points="56.61 0.5 25.69 53.5 58.27 107.48"/></g></g><g id="hex"><polygon class="cls-1" points="46.82 158.18 92.64 184.64 92.64 237.55 46.82 264 1 237.55 1 184.64 46.82 158.18"/><polyline class="cls-1" points="44.22 169.87 46.82 168.37 49.42 169.87"/><line class="cls-2" x1="53.96" y1="172.49" x2="78.95" y2="186.92"/><polyline class="cls-1" points="81.22 188.23 83.82 189.73 83.82 192.73"/><line class="cls-2" x1="83.82" y1="197.98" x2="83.82" y2="226.83"/><polyline class="cls-1" points="83.82 229.45 83.82 232.45 81.22 233.95"/><line class="cls-2" x1="76.68" y1="236.58" x2="51.69" y2="251"/><polyline class="cls-1" points="49.42 252.32 46.82 253.82 44.22 252.32"/><line class="cls-2" x1="39.68" y1="249.69" x2="14.69" y2="235.27"/><polyline class="cls-1" points="12.42 233.95 9.82 232.45 9.82 229.45"/><line class="cls-2" x1="9.82" y1="224.21" x2="9.82" y2="195.35"/><polyline class="cls-1" points="9.82 192.73 9.82 189.73 12.42 188.23"/><line class="cls-2" x1="16.96" y1="185.61" x2="41.95" y2="171.18"/></g><g id="pent"><polyline class="cls-1" points="119.03 124.06 109.4 102.41 58.16 107.8 47.45 158.19 92.07 183.94 118.79 159.88"/><line class="cls-1" x1="110.5" y1="124.79" x2="109.28" y2="122.05"/><polyline class="cls-1" points="105.65 113.89 104.43 111.15 101.44 111.47"/><line class="cls-3" x1="94.62" y1="112.18" x2="70.73" y2="114.7"/><polyline class="cls-1" points="67.31 115.06 64.33 115.37 63.7 118.3"/><line class="cls-3" x1="62.28" y1="125.02" x2="57.28" y2="148.52"/><polyline class="cls-1" points="56.57 151.87 55.95 154.81 58.54 156.31"/><line class="cls-3" x1="64.49" y1="159.74" x2="85.29" y2="171.75"/><polyline class="cls-1" points="88.27 173.47 90.86 174.97 93.09 172.96"/><line class="cls-4" x1="97.25" y1="169.22" x2="103.49" y2="163.6"/><line class="cls-1" x1="105.57" y1="161.73" x2="107.8" y2="159.72"/></g><g id="text"><path class="cls-5" d="M144.77,160.12H142.1L126,131.06v29.06h-2.7V126H126l16.12,29.11V126h2.65Z"/><path class="cls-5" d="M174.28,160.12h-2.7V143.79h-16v16.33h-2.67V126h2.67v15.3h16V126h2.7Z"/></g></g></g></svg>