<svg xmlns="http://www.w3.org/2000/svg" viewBox="0 0 98.97 120.57"><defs><style>.cls-1{fill:none;stroke:#1d1d1b;stroke-miterlimit:10;stroke-width:2px;}.cls-2{fill:#010101;}</style></defs><g id="Warstwa_2" data-name="Warstwa 2"><g id="base"><polyline class="cls-1" points="5.89 120.06 36.81 67.64 36.81 67.64"/><line class="cls-1" x1="73.77" y1="68.32" x2="36.04" y2="68.14"/><line class="cls-1" x1="33.59" y1="71.9" x2="14.89" y2="39.13"/><line class="cls-1" x1="40.94" y1="67.9" x2="22.24" y2="35.13"/><path class="cls-2" d="M99,73q0,6.62-2.9,10.22A9.81,9.81,0,0,1,88,86.79a9.89,9.89,0,0,1-8.12-3.61c-2-2.4-3-5.79-3-10.14V65.61q0-6.6,2.93-10.23a9.85,9.85,0,0,1,8.11-3.65,9.83,9.83,0,0,1,8.16,3.66Q99,59,99,65.68Zm-2.7-7.4c0-3.74-.72-6.54-2.16-8.42a8.21,8.21,0,0,0-12.32,0c-1.47,1.83-2.22,4.58-2.25,8.23V73q0,5.63,2.22,8.45A7.44,7.44,0,0,0,88,84.24a7.29,7.29,0,0,0,6.2-2.81q2.11-2.82,2.12-8.47Z"/><path class="cls-2" d="M22.1,21.23q0,6.61-2.89,10.22a9.81,9.81,0,0,1-8.12,3.61A9.91,9.91,0,0,1,3,31.45Q0,27.85,0,21.3V13.88Q0,7.28,2.93,3.64A9.83,9.83,0,0,1,11,0,9.83,9.83,0,0,1,19.2,3.66Q22.1,7.31,22.1,14Zm-2.69-7.4c0-3.74-.72-6.54-2.16-8.42A7.37,7.37,0,0,0,11,2.6,7.4,7.4,0,0,0,4.92,5.36C3.45,7.19,2.7,9.94,2.67,13.59v7.64q0,5.63,2.23,8.45a7.42,7.42,0,0,0,6.19,2.83,7.32,7.32,0,0,0,6.2-2.81q2.12-2.82,2.12-8.47Z"/></g></g></svg>