<svg xmlns="http://www.w3.org/2000/svg" viewBox="0 0 60.02 149.83"><defs><style>.cls-1{fill:none;stroke:#1e1e1c;stroke-miterlimit:10;stroke-width:2px;}.cls-2{fill:#1d1d1b;}</style></defs><g id="Warstwa_2" data-name="Warstwa 2"><g id="C"><g id="Warstwa_2-2" data-name="Warstwa 2"><g id="amino"><polyline class="cls-1" points="27.93 0.5 58.85 53.5 26.27 107.48"/></g></g><g id="text"><path class="cls-2" d="M21.4,149.36H18.7V133h-16v16.34H0V115.24H2.67v15.3h16v-15.3h2.7Z"/><path class="cls-2" d="M45.54,141a6.08,6.08,0,0,0-1.63-4.5c-1.09-1.09-3.11-2.14-6.08-3.14A19.29,19.29,0,0,1,31.29,130a8.08,8.08,0,0,1-2.74-6.38,8.24,8.24,0,0,1,2.69-6.37,9.93,9.93,0,0,1,7-2.46,9.48,9.48,0,0,1,7.13,2.86A10.15,10.15,0,0,1,48.09,125H45.4a7.94,7.94,0,0,0-1.94-5.57,6.73,6.73,0,0,0-5.26-2.12A7.16,7.16,0,0,0,33.11,119a5.9,5.9,0,0,0-1.87,4.52A5.51,5.51,0,0,0,33,127.77a15.28,15.28,0,0,0,5.6,2.92,23.42,23.42,0,0,1,5.81,2.65,8.68,8.68,0,0,1,2.91,3.22,9.5,9.5,0,0,1,.94,4.36,8.28,8.28,0,0,1-2.71,6.46,10.27,10.27,0,0,1-7.16,2.45,12.11,12.11,0,0,1-5.47-1.23,9.2,9.2,0,0,1-3.87-3.54,10.35,10.35,0,0,1-1.39-5.45h2.67a7.39,7.39,0,0,0,2.18,5.67,8.17,8.17,0,0,0,5.88,2.06,7.5,7.5,0,0,0,5.19-1.73A5.88,5.88,0,0,0,45.54,141Z"/></g></g></g></svg>