<svg xmlns="http://www.w3.org/2000/svg" viewBox="0 0 143.79 212.25"><defs><style>.cls-1{fill:none;stroke:#1d1d1b;stroke-miterlimit:10;stroke-width:2px;}</style></defs><g id="Warstwa_2" data-name="Warstwa 2"><g id="H"><g id="Warstwa_2-2" data-name="Warstwa 2"><g id="amino"><polyline class="cls-1" points="81.05 0.49 111.97 55.16 81.05 110.99 20.31 115.33 13.48 154.16"/><line class="cls-1" x1="96.51" y1="143.16" x2="81.05" y2="110.99"/><line class="cls-1" x1="73.7" y1="123.33" x2="31.09" y2="126.33"/><polyline class="cls-1" points="86.98 186.99 60.98 210.99 29.98 191.16"/><line class="cls-1" x1="37.24" y1="183.28" x2="58.48" y2="196.83"/></g></g><g id="text"><path d="M114.28,184.05h-2.67L95.5,155v29.06H92.81V149.93H95.5L111.63,179V149.93h2.65Z"/><path d="M143.79,184.05h-2.7V167.72h-16v16.33h-2.67V149.93h2.67v15.3h16v-15.3h2.7Z"/></g><g id="text-2" data-name="text"><path d="M21.47,194.5H18.8L2.7,165.43V194.5H0V160.37H2.7l16.12,29.11V160.37h2.65Z"/></g></g></g></svg>