<svg xmlns="http://www.w3.org/2000/svg" viewBox="0 0 68.62 282.98"><defs><style>.cls-1{fill:none;stroke:#1d1d1b;stroke-miterlimit:10;stroke-width:2px;}</style></defs><g id="Warstwa_2" data-name="Warstwa 2"><g id="K"><g id="Warstwa_2-2" data-name="Warstwa 2"><g id="amino"><polyline class="cls-1" points="1.16 0.5 32.08 53.5 1.16 106.38 32.08 159.61 1.16 214.61 16.62 241.94"/></g></g><g id="text"><path d="M24.83,282.74H22.16L6.06,253.68v29.06H3.36V248.62h2.7l16.12,29.11V248.62h2.65Z"/><path d="M54.34,282.74h-2.7V266.41h-16v16.33H32.94V248.62h2.67v15.3h16v-15.3h2.7Z"/><path d="M62.59,273.44h1.28a3.14,3.14,0,0,0,2.31-.91,3.27,3.27,0,0,0,.88-2.4,3.87,3.87,0,0,0-.76-2.56,2.66,2.66,0,0,0-2.15-.9,2.78,2.78,0,0,0-2.2,1,3.73,3.73,0,0,0-.84,2.53h-1.3a5.18,5.18,0,0,1,.55-2.41,4.15,4.15,0,0,1,1.55-1.69,4.21,4.21,0,0,1,2.24-.61,4,4,0,0,1,3.07,1.25,5,5,0,0,1,1.15,3.48,4.18,4.18,0,0,1-.67,2.3A4,4,0,0,1,65.93,274a3.7,3.7,0,0,1,2,1.48,4.63,4.63,0,0,1,.7,2.62,5,5,0,0,1-1.22,3.55A4.14,4.14,0,0,1,64.18,283a4.69,4.69,0,0,1-2.34-.6,4.22,4.22,0,0,1-1.65-1.7,5.3,5.3,0,0,1-.58-2.55h1.3a3.76,3.76,0,0,0,.91,2.61,3,3,0,0,0,2.36,1,3,3,0,0,0,2.32-.93,3.92,3.92,0,0,0,.82-2.69,3.13,3.13,0,0,0-3.47-3.48H62.59Z"/></g></g></g></svg>