<svg xmlns="http://www.w3.org/2000/svg" viewBox="0 0 112.66 176.71"><defs><style>.cls-1{fill:none;stroke:#1e1e1c;stroke-miterlimit:10;stroke-width:2px;}.cls-2{fill:#010202;}.cls-3{fill:#010101;}</style></defs><g id="Warstwa_2" data-name="Warstwa 2"><g id="N"><g id="Warstwa_2-2" data-name="Warstwa 2"><g id="amino"><polyline class="cls-1" points="32.85 138.34 51.78 107.33 51.78 107.33 20.86 53.34 51.78 0.51"/><line class="cls-1" x1="49.22" y1="103.3" x2="86.94" y2="102.51"/><line class="cls-1" x1="49.22" y1="111.67" x2="86.94" y2="110.87"/></g></g><path id="text" class="cls-2" d="M112.66,111.28q0,6.61-2.9,10.22a11,11,0,0,1-16.22,0c-2-2.4-3-5.79-3-10.14v-7.43q0-6.6,2.93-10.23a10.88,10.88,0,0,1,16.27,0q2.92,3.61,2.92,10.29Zm-2.7-7.4c0-3.74-.72-6.54-2.16-8.42a8.21,8.21,0,0,0-11.59-.73,7.19,7.19,0,0,0-.73.73c-1.47,1.83-2.22,4.58-2.25,8.23v7.59q0,5.63,2.22,8.45a7.43,7.43,0,0,0,6.21,2.79,7.32,7.32,0,0,0,6.2-2.81c1.41-1.88,2.11-4.7,2.12-8.47Z"/><g id="text-2" data-name="text"><path class="cls-3" d="M21.47,176.71H18.8L2.7,147.65v29.06H0V142.59H2.7L18.82,171.7V142.59h2.65Z"/><path class="cls-3" d="M51,176.71h-2.7V160.38h-16v16.33H29.58V142.59h2.67v15.3h16v-15.3H51Z"/><path class="cls-3" d="M65.66,176.71h-9V175.6l4.85-6.54a15.27,15.27,0,0,0,1.7-2.78,5.34,5.34,0,0,0,.48-2.15,3.92,3.92,0,0,0-.76-2.55,2.59,2.59,0,0,0-2.13-1,2.78,2.78,0,0,0-2.3,1.1,4.49,4.49,0,0,0-.85,2.84H56.3a5.55,5.55,0,0,1,1.23-3.69,4.37,4.37,0,0,1,6.3-.25A4.73,4.73,0,0,1,65,164a9,9,0,0,1-1.85,4.79l-.75,1.08-4.17,5.62h7.46Z"/></g></g></g></svg>