<svg xmlns="http://www.w3.org/2000/svg" viewBox="0 0 249.66 354.39"><defs><style>.cls-1,.cls-2,.cls-3,.cls-4{fill:none;stroke:#1d1d1b;stroke-miterlimit:10;stroke-width:2px;}.cls-2{stroke-dasharray:5.97 5.97;}.cls-3{stroke-dasharray:5.41 5.41;}.cls-4{stroke-dasharray:4.81 4.81;}</style></defs><g id="Warstwa_2" data-name="Warstwa 2"><g id="R"><g id="Warstwa_2-2" data-name="Warstwa 2"><g id="lines"><polyline class="cls-1" points="123.42 206.31 139.92 179.65 107.42 125.48 139.92 70.81 106.75 16.22"/><polyline class="cls-1" points="123.34 257.89 138.59 283.89 176.42 283.89"/><line class="cls-1" x1="121.42" y1="314.55" x2="138.59" y2="283.89"/><line class="cls-1" x1="107.14" y1="16.31" x2="69.41" y2="16.13"/><line class="cls-1" x1="176.42" y1="286.8" x2="173.42" y2="286.8"/><line class="cls-2" x1="167.45" y1="286.8" x2="146.57" y2="286.8"/><polyline class="cls-1" points="143.59 286.8 140.59 286.8 139.09 289.4"/><line class="cls-3" x1="136.41" y1="294.1" x2="127" y2="310.52"/><line class="cls-1" x1="125.66" y1="312.86" x2="124.17" y2="315.47"/><line class="cls-1" x1="127.25" y1="256.69" x2="128.72" y2="259.31"/><line class="cls-4" x1="131.06" y1="263.5" x2="139.28" y2="278.19"/><line class="cls-1" x1="140.45" y1="280.29" x2="141.92" y2="282.91"/></g></g><path d="M120.05,248.39h-2.69V232.05h-16v16.34H98.66V214.26h2.67v15.31h16V214.26h2.69Z"/><path d="M149.63,248.39H147l-16.1-29.06v29.06h-2.7V214.26h2.7L147,243.37V214.26h2.65Z"/><path d="M111.54,354.39h-2.67l-16.1-29.07v29.07h-2.7V320.26h2.7l16.12,29.11V320.26h2.65Z"/><path d="M141.05,354.39h-2.7V338.05h-16v16.34h-2.67V320.26h2.67v15.31h16V320.26h2.7Z"/><path d="M155.73,354.39h-9v-1.12l4.86-6.54a15.68,15.68,0,0,0,1.69-2.77,5.42,5.42,0,0,0,.48-2.16,3.93,3.93,0,0,0-.76-2.55,2.58,2.58,0,0,0-2.13-.94,2.77,2.77,0,0,0-2.3,1.09,4.5,4.5,0,0,0-.85,2.85h-1.3a5.56,5.56,0,0,1,1.23-3.7,4.39,4.39,0,0,1,6.3-.25,4.73,4.73,0,0,1,1.14,3.37,9,9,0,0,1-1.85,4.79l-.75,1.08-4.17,5.63h7.46Z"/><path d="M205.46,301.89h-2.67l-16.1-29.06v29.06H184V267.76h2.69l16.13,29.11V267.76h2.64Z"/><path d="M235,301.89h-2.69V285.55h-16v16.34h-2.68V267.76h2.68v15.31h16V267.76H235Z"/><path d="M249.66,301.89h-9v-1.11l4.85-6.54a16.23,16.23,0,0,0,1.7-2.78,5.35,5.35,0,0,0,.48-2.16,3.94,3.94,0,0,0-.77-2.55,2.61,2.61,0,0,0-2.12-.94,2.76,2.76,0,0,0-2.3,1.1,4.47,4.47,0,0,0-.86,2.84h-1.3a5.52,5.52,0,0,1,1.23-3.69,4.38,4.38,0,0,1,6.31-.25,4.74,4.74,0,0,1,1.13,3.36,8.94,8.94,0,0,1-1.85,4.8l-.75,1.07-4.17,5.63h7.47Z"/><path d="M21.47,34.12H18.8L2.7,5.06V34.12H0V0H2.7L18.82,29.11V0h2.65Z"/><path d="M51,34.12h-2.7V17.79h-16V34.12H29.58V0h2.67V15.3h16V0H51Z"/><path d="M65.66,34.12h-9V33l4.85-6.54a15.6,15.6,0,0,0,1.7-2.77,5.42,5.42,0,0,0,.48-2.16A3.93,3.93,0,0,0,62.88,19a2.58,2.58,0,0,0-2.13-.94,2.77,2.77,0,0,0-2.3,1.09A4.49,4.49,0,0,0,57.6,22H56.3a5.55,5.55,0,0,1,1.23-3.69,4.39,4.39,0,0,1,6.3-.25A4.73,4.73,0,0,1,65,21.41a9,9,0,0,1-1.85,4.79l-.75,1.08L58.2,32.91h7.46Z"/></g></g></svg>