<svg xmlns="http://www.w3.org/2000/svg" viewBox="0 0 135.86 133.51"><defs><style>.cls-1{fill:none;stroke:#1e1e1c;stroke-miterlimit:10;stroke-width:2px;}.cls-2{fill:#1d1d1b;}</style></defs><g id="Warstwa_2" data-name="Warstwa 2"><g id="T"><polyline class="cls-1" points="52.63 0 52.63 61.74 104.72 93.98"/><polyline class="cls-1" points="52.63 0 52.63 61.74 0.53 93.98"/><g id="text"><path class="cls-2" d="M107.31,119.68q0,6.61-2.89,10.22a9.81,9.81,0,0,1-8.12,3.61,9.89,9.89,0,0,1-8.12-3.61q-2.94-3.62-3-10.15v-7.43q0-6.58,2.93-10.23a9.84,9.84,0,0,1,8.11-3.64,9.83,9.83,0,0,1,8.16,3.65q2.91,3.66,2.9,10.29Zm-2.69-7.41q0-5.59-2.16-8.41a8.23,8.23,0,0,0-12.33-.06c-1.46,1.84-2.21,4.58-2.25,8.24v7.64c0,3.75.75,6.57,2.23,8.45A7.45,7.45,0,0,0,96.3,131a7.28,7.28,0,0,0,6.2-2.81q2.11-2.8,2.12-8.46Z"/><path class="cls-2" d="M135.86,133h-2.69V116.7h-16V133h-2.67V98.91h2.67v15.31h16V98.91h2.69Z"/></g></g></g></svg>