<svg xmlns="http://www.w3.org/2000/svg" viewBox="0 0 60.06 146.07"><defs><style>.cls-1{fill:none;stroke:#1e1e1c;stroke-miterlimit:10;stroke-width:2px;}.cls-2{fill:#1d1d1b;}</style></defs><g id="Warstwa_2" data-name="Warstwa 2"><g id="U"><g id="Warstwa_2-2" data-name="Warstwa 2"><g id="amino"><polyline class="cls-1" points="27.98 0.5 58.9 53.5 26.31 107.48"/></g></g><g id="text"><path class="cls-2" d="M17.88,137.21a6.08,6.08,0,0,0-1.63-4.5c-1.08-1.1-3.11-2.14-6.08-3.14a19.11,19.11,0,0,1-6.54-3.36,8.06,8.06,0,0,1-2.74-6.37,8.24,8.24,0,0,1,2.7-6.38,9.9,9.9,0,0,1,7-2.46,9.49,9.49,0,0,1,7.12,2.86,10.13,10.13,0,0,1,2.77,7.36h-2.7a7.91,7.91,0,0,0-1.93-5.56,6.75,6.75,0,0,0-5.26-2.13,7.17,7.17,0,0,0-5.1,1.75,5.9,5.9,0,0,0-1.86,4.51A5.51,5.51,0,0,0,5.34,124,15.49,15.49,0,0,0,11,126.93a23.06,23.06,0,0,1,5.81,2.65,8.74,8.74,0,0,1,2.9,3.22,9.47,9.47,0,0,1,.94,4.36,8.29,8.29,0,0,1-2.71,6.46,10.27,10.27,0,0,1-7.16,2.45,12,12,0,0,1-5.47-1.24,9.25,9.25,0,0,1-3.87-3.53A10.35,10.35,0,0,1,0,135.85H2.67a7.46,7.46,0,0,0,2.18,5.67,8.23,8.23,0,0,0,5.88,2.06,7.59,7.59,0,0,0,5.2-1.73A5.92,5.92,0,0,0,17.88,137.21Z"/><path class="cls-2" d="M34.48,146.07a8.78,8.78,0,0,1-7-2.93q-2.53-2.94-2.58-8.35V131.7q0-5.58,2.44-8.76a8,8,0,0,1,6.7-3.17,7.6,7.6,0,0,1,6.29,2.69q2.18,2.7,2.22,8.25v2.44H27.47v1.43a10.67,10.67,0,0,0,1.86,6.73,6.3,6.3,0,0,0,5.26,2.36,7.55,7.55,0,0,0,6.07-2.74L42,142.67C40.37,144.93,37.85,146.07,34.48,146.07ZM34,122.21a5.58,5.58,0,0,0-4.72,2.16,11.11,11.11,0,0,0-1.82,6.34H39.94V130Q39.75,122.21,34,122.21Z"/></g></g></g></svg>