<svg xmlns="http://www.w3.org/2000/svg" viewBox="0 -0.03 187.59 104.65"><defs><style>.cls-1{fill:none;stroke:#1d1d1b;stroke-miterlimit:10;stroke-width:2px;}.cls-2{fill:#010101;}</style></defs><g id="Warstwa_2" data-name="Warstwa 2"><g id="base"><g id="Warstwa_2-2" data-name="Warstwa 2"><g id="base-2" data-name="base"><polyline class="cls-1" points="67.82 84.68 102.17 103.62 154.56 72.64 154.56 72.64"/><line class="cls-1" x1="186.59" y1="91.09" x2="153.64" y2="72.71"/><line class="cls-1" x1="149.68" y1="74.82" x2="149.13" y2="37.09"/><line class="cls-1" x1="158.05" y1="74.86" x2="157.5" y2="37.14"/></g></g><path id="text-2" data-name="text" class="cls-2" d="M164.67,20.68q0,6.43-2.89,10a11.11,11.11,0,0,1-16.21,0q-3-3.51-3-9.88V13.53q0-6.43,2.93-10a11.07,11.07,0,0,1,16.27,0q2.89,3.56,2.9,10.06ZM162,13.48q0-5.46-2.16-8.2a8.38,8.38,0,0,0-12.33,0c-1.47,1.78-2.22,4.46-2.25,8v7.44c0,3.65.74,6.4,2.23,8.23a7.5,7.5,0,0,0,6.19,2.75,7.42,7.42,0,0,0,6.2-2.73Q162,26.19,162,20.68Z"/><g id="text-3" data-name="text"><path d="M21.47,85H18.8L2.7,55.94V85H0V50.87H2.7L18.82,80V50.87h2.65Z"/><path d="M51,85h-2.7V68.66h-16V85H29.58V50.87h2.67V66.18h16V50.87H51Z"/><path d="M59.23,75.69H60.5a3.11,3.11,0,0,0,2.32-.91,3.23,3.23,0,0,0,.88-2.39,3.85,3.85,0,0,0-.76-2.56,2.65,2.65,0,0,0-2.15-.91,2.76,2.76,0,0,0-2.2,1,3.69,3.69,0,0,0-.84,2.52h-1.3A5.3,5.3,0,0,1,57,70a4.23,4.23,0,0,1,3.8-2.3A4,4,0,0,1,63.86,69,5,5,0,0,1,65,72.44a4.16,4.16,0,0,1-.66,2.29,4,4,0,0,1-1.77,1.53,3.66,3.66,0,0,1,2,1.48,4.61,4.61,0,0,1,.7,2.62A5,5,0,0,1,64,83.91a4.16,4.16,0,0,1-3.22,1.32,4.69,4.69,0,0,1-2.34-.6,4.19,4.19,0,0,1-1.65-1.69,5.34,5.34,0,0,1-.58-2.56h1.3A3.76,3.76,0,0,0,58.46,83a3,3,0,0,0,2.36,1,2.93,2.93,0,0,0,2.31-.93A3.86,3.86,0,0,0,64,80.4a3.13,3.13,0,0,0-3.47-3.49H59.23Z"/></g></g></g></svg>