<svg xmlns="http://www.w3.org/2000/svg" viewBox="0 0 99.65 173.42"><defs><style>.cls-1{fill:none;stroke:#1d1d1b;stroke-miterlimit:10;stroke-width:2px;}.cls-2{fill:#010101;}</style></defs><g id="Warstwa_2" data-name="Warstwa 2"><g id="D"><g id="Warstwa_2-2" data-name="Warstwa 2"><g id="amino"><polyline class="cls-1" points="19.83 138.34 38.76 107.33 38.76 107.33 7.84 53.34 38.76 0.51"/><line class="cls-1" x1="36.2" y1="103.3" x2="73.92" y2="102.51"/><line class="cls-1" x1="36.21" y1="111.67" x2="73.93" y2="110.87"/></g></g><path id="text" class="cls-2" d="M99.65,111.28q0,6.61-2.9,10.22a9.83,9.83,0,0,1-8.1,3.57,9.88,9.88,0,0,1-8.12-3.61c-2-2.4-3-5.79-3-10.14v-7.43q0-6.6,2.93-10.23A9.85,9.85,0,0,1,88.57,90a9.83,9.83,0,0,1,8.16,3.66q2.91,3.61,2.92,10.29Zm-2.7-7.4c0-3.74-.72-6.54-2.16-8.42a8.21,8.21,0,0,0-11.59-.73,6.29,6.29,0,0,0-.73.73c-1.47,1.83-2.22,4.58-2.25,8.23v7.59q0,5.63,2.22,8.45a7.42,7.42,0,0,0,6.21,2.79,7.32,7.32,0,0,0,6.2-2.81q2.1-2.82,2.12-8.47Z"/><path id="text-2" data-name="text" class="cls-2" d="M22.12,159.62q0,6.62-2.9,10.22a9.83,9.83,0,0,1-8.1,3.57A9.88,9.88,0,0,1,3,169.8c-2-2.4-3-5.79-3-10.14v-7.43q0-6.6,2.93-10.23A9.85,9.85,0,0,1,11,138.35,9.83,9.83,0,0,1,19.2,142q2.93,3.6,2.92,10.29Zm-2.7-7.4c0-3.74-.72-6.54-2.16-8.42a8.21,8.21,0,0,0-11.59-.73,7.19,7.19,0,0,0-.73.73c-1.47,1.83-2.22,4.58-2.25,8.23v7.59q0,5.63,2.22,8.45a7.46,7.46,0,0,0,6.21,2.79,7.32,7.32,0,0,0,6.2-2.81c1.41-1.88,2.11-4.71,2.12-8.47Z"/></g></g></svg>