<svg xmlns="http://www.w3.org/2000/svg" viewBox="0 0 99.65 225.71"><defs><style>.cls-1{fill:none;stroke:#1d1d1b;stroke-miterlimit:10;stroke-width:2px;}.cls-2{fill:#010101;}</style></defs><g id="Warstwa_2" data-name="Warstwa 2"><g id="E"><g id="Warstwa_2-2" data-name="Warstwa 2"><g id="amino"><polyline class="cls-1" points="79.81 190.63 60.88 159.63 60.88 159.63 91.8 105.63 60.88 52.8 91.05 0.5"/><line class="cls-1" x1="63.44" y1="155.59" x2="25.72" y2="154.8"/><line class="cls-1" x1="63.44" y1="163.96" x2="25.72" y2="163.16"/></g></g><path id="text" class="cls-2" d="M0,163.57q0,6.62,2.9,10.22a9.83,9.83,0,0,0,8.1,3.57,9.88,9.88,0,0,0,8.12-3.61c2-2.4,3-5.79,3-10.14v-7.43q0-6.6-2.93-10.23a9.85,9.85,0,0,0-8.11-3.65A9.83,9.83,0,0,0,2.92,146Q0,149.57,0,156.25Zm2.7-7.4c0-3.74.72-6.54,2.16-8.42A8.21,8.21,0,0,1,16.45,147a8.38,8.38,0,0,1,.73.73c1.47,1.83,2.22,4.58,2.25,8.23v7.59q0,5.63-2.22,8.45A7.43,7.43,0,0,1,11,174.81,7.32,7.32,0,0,1,4.8,172c-1.41-1.88-2.11-4.7-2.12-8.47Z"/><path id="text-2" data-name="text" class="cls-2" d="M77.53,211.91q0,6.61,2.9,10.22a9.82,9.82,0,0,0,8.1,3.57,9.9,9.9,0,0,0,8.12-3.61c2-2.4,3-5.79,3-10.14v-7.43q0-6.6-2.93-10.23a9.85,9.85,0,0,0-8.11-3.65,9.82,9.82,0,0,0-8.16,3.66q-2.92,3.62-2.92,10.29Zm2.7-7.4c0-3.74.72-6.54,2.16-8.42A8.2,8.2,0,0,1,94,195.36a7.28,7.28,0,0,1,.74.73c1.47,1.83,2.22,4.58,2.25,8.23v7.59q0,5.63-2.22,8.45a7.43,7.43,0,0,1-6.21,2.79,7.3,7.3,0,0,1-6.2-2.81q-2.11-2.82-2.12-8.47Z"/></g></g></svg>