<svg xmlns="http://www.w3.org/2000/svg" viewBox="0 0 40.98 212.38"><defs><style>.cls-1{fill:none;stroke:#1e1e1c;stroke-miterlimit:10;stroke-width:2px;}.cls-2{fill:#1d1d1b;}</style></defs><g id="Warstwa_2" data-name="Warstwa 2"><g id="M"><polyline class="cls-1" points="20.89 138.34 39.82 107.33 39.82 107.33 8.9 53.34 39.82 0.51"/><line class="cls-1" x1="39.82" y1="211.85" x2="20.89" y2="180.85"/><path class="cls-2" d="M17.88,168.46a6.11,6.11,0,0,0-1.63-4.5q-1.62-1.64-6.08-3.14a19.11,19.11,0,0,1-6.54-3.35A8.06,8.06,0,0,1,.89,151.1a8.24,8.24,0,0,1,2.7-6.38,9.9,9.9,0,0,1,7-2.46,9.45,9.45,0,0,1,7.12,2.86,10.13,10.13,0,0,1,2.77,7.36h-2.7a8,8,0,0,0-1.93-5.57,6.77,6.77,0,0,0-5.26-2.12,7.13,7.13,0,0,0-5.1,1.75,5.9,5.9,0,0,0-1.86,4.51,5.52,5.52,0,0,0,1.75,4.22A15.49,15.49,0,0,0,11,158.19a23.06,23.06,0,0,1,5.81,2.65,8.66,8.66,0,0,1,2.9,3.22,9.47,9.47,0,0,1,.94,4.36,8.26,8.26,0,0,1-2.71,6.45,10.22,10.22,0,0,1-7.16,2.45,12.11,12.11,0,0,1-5.47-1.23,9.2,9.2,0,0,1-3.87-3.54A10.32,10.32,0,0,1,0,167.1H2.67a7.47,7.47,0,0,0,2.18,5.68,8.23,8.23,0,0,0,5.88,2.06,7.55,7.55,0,0,0,5.2-1.74A5.89,5.89,0,0,0,17.88,168.46Z"/></g></g></svg>