<svg id="Warstwa_1" data-name="Warstwa 1" xmlns="http://www.w3.org/2000/svg" viewBox="0 0 40.98 212.37"><defs><style>.cls-1{fill:none;stroke:#1e1e1c;stroke-miterlimit:10;stroke-width:2px;}.cls-2{fill:#1d1d1b;}</style></defs><g id="Warstwa_2" data-name="Warstwa 2"><g id="M"><polyline class="cls-1" points="20.89 138.34 39.82 107.33 39.82 107.33 8.9 53.34 39.82 0.51"/><line class="cls-1" x1="39.82" y1="211.85" x2="20.89" y2="180.85"/><path class="cls-2" d="M17.88,151.12a6.13,6.13,0,0,1-1.63,4.5c-1.08,1.09-3.1,2.14-6.08,3.14a19.07,19.07,0,0,0-6.54,3.35,8.09,8.09,0,0,0-2.74,6.37,8.26,8.26,0,0,0,2.7,6.38,9.93,9.93,0,0,0,7,2.46,9.5,9.5,0,0,0,7.12-2.86,10.11,10.11,0,0,0,2.77-7.36h-2.7a8,8,0,0,1-1.93,5.57,6.8,6.8,0,0,1-5.26,2.12A7.17,7.17,0,0,1,5.49,173a5.91,5.91,0,0,1-1.86-4.51,5.54,5.54,0,0,1,1.75-4.22A15.42,15.42,0,0,1,11,161.39a23,23,0,0,0,5.81-2.65,8.64,8.64,0,0,0,2.9-3.22,9.42,9.42,0,0,0,.94-4.36,8.22,8.22,0,0,0-2.71-6.45,10.18,10.18,0,0,0-7.16-2.45,11.93,11.93,0,0,0-5.47,1.23A9.25,9.25,0,0,0,1.44,147,10.4,10.4,0,0,0,0,152.48H2.67a7.48,7.48,0,0,1,2.18-5.68,8.25,8.25,0,0,1,5.88-2.06,7.51,7.51,0,0,1,5.2,1.74A5.88,5.88,0,0,1,17.88,151.12Z"/></g></g></svg>