<svg xmlns="http://www.w3.org/2000/svg" viewBox="0 0 166.15 337.28"><defs><style>.cls-1,.cls-2,.cls-3,.cls-4{fill:none;stroke:#1d1d1b;stroke-miterlimit:10;stroke-width:2px;}.cls-2{stroke-dasharray:5.97 5.97;}.cls-3{stroke-dasharray:5.41 5.41;}.cls-4{stroke-dasharray:4.81 4.81;}</style></defs><g id="Warstwa_2" data-name="Warstwa 2"><g id="R"><g id="Warstwa_2-2" data-name="Warstwa 2"><g id="lines"><polyline class="cls-1" points="52.18 190.9 72.34 166.89 47.96 108.61 87.97 59.18 62.99 0.39"/><polyline class="cls-1" points="44.69 241.94 56.05 269.86 93.49 275.29"/><line class="cls-1" x1="34.65" y1="297.73" x2="56.05" y2="269.86"/><line class="cls-1" x1="93.07" y1="278.17" x2="90.1" y2="277.74"/><line class="cls-2" x1="84.2" y1="276.89" x2="63.53" y2="273.89"/><polyline class="cls-1" points="60.58 273.46 57.61 273.03 55.76 275.39"/><line class="cls-3" x1="52.42" y1="279.65" x2="40.76" y2="294.55"/><line class="cls-1" x1="39.09" y1="296.68" x2="37.24" y2="299.04"/><line class="cls-1" x1="48.74" y1="241.31" x2="49.81" y2="244.11"/><line class="cls-4" x1="51.53" y1="248.6" x2="57.55" y2="264.32"/><line class="cls-1" x1="58.41" y1="266.57" x2="59.49" y2="269.37"/></g></g><g id="text"><path d="M45.21,232.83H42.52V216.49h-16v16.34H23.82V198.7h2.67V214h16V198.7h2.69Z"/><path d="M74.79,232.83H72.12L56,203.77v29.06h-2.7V198.7H56l16.13,29.11V198.7h2.64Z"/></g><g id="text-2" data-name="text"><path d="M21.47,337.28H18.8L2.7,308.22v29.06H0V303.16H2.7l16.12,29.11V303.16h2.65Z"/><path d="M51,337.28h-2.7V321h-16v16.33H29.58V303.16h2.67v15.3h16v-15.3H51Z"/><path d="M65.66,337.28h-9v-1.11l4.85-6.54a15.27,15.27,0,0,0,1.7-2.78,5.34,5.34,0,0,0,.48-2.15,3.93,3.93,0,0,0-.76-2.55,2.58,2.58,0,0,0-2.13-.94,2.77,2.77,0,0,0-2.3,1.09,4.49,4.49,0,0,0-.85,2.84H56.3a5.55,5.55,0,0,1,1.23-3.69,4.39,4.39,0,0,1,6.3-.25A4.73,4.73,0,0,1,65,324.57a9,9,0,0,1-1.85,4.79l-.75,1.08-4.17,5.63h7.46Z"/></g><g id="text-3" data-name="text"><path d="M122,298.82h-2.67l-16.1-29.06v29.06h-2.7V264.7h2.7l16.12,29.11V264.7H122Z"/><path d="M151.47,298.82h-2.7V282.49h-16v16.33h-2.67V264.7h2.67V280h16V264.7h2.7Z"/><path d="M166.15,298.82H157.1v-1.11l4.86-6.54a15.86,15.86,0,0,0,1.7-2.78,5.34,5.34,0,0,0,.48-2.15,3.94,3.94,0,0,0-.77-2.55,2.59,2.59,0,0,0-2.13-.95,2.78,2.78,0,0,0-2.3,1.1,4.49,4.49,0,0,0-.85,2.84h-1.3A5.55,5.55,0,0,1,158,283a4.39,4.39,0,0,1,6.3-.25,4.73,4.73,0,0,1,1.14,3.37,9,9,0,0,1-1.85,4.79l-.75,1.08-4.17,5.62h7.46Z"/></g></g></g></svg>