<svg id="Warstwa_1" data-name="Warstwa 1" xmlns="http://www.w3.org/2000/svg" viewBox="0 0 166.15 337.33"><defs><style>.cls-1,.cls-2,.cls-3,.cls-4{fill:none;stroke:#1d1d1b;stroke-miterlimit:10;stroke-width:2px;}.cls-2{stroke-dasharray:5.97 5.97;}.cls-3{stroke-dasharray:5.41 5.41;}.cls-4{stroke-dasharray:4.81 4.81;}</style></defs><g id="Warstwa_2" data-name="Warstwa 2"><g id="R"><g id="Warstwa_2-2" data-name="Warstwa 2-2"><g id="lines"><polyline class="cls-1" points="52.18 190.9 72.34 166.89 47.96 108.61 87.97 59.18 62.99 0.39"/><polyline class="cls-1" points="44.69 241.94 56.05 269.86 93.49 275.29"/><line class="cls-1" x1="34.65" y1="297.73" x2="56.05" y2="269.86"/><line class="cls-1" x1="93.07" y1="278.17" x2="90.1" y2="277.74"/><line class="cls-2" x1="84.2" y1="276.89" x2="63.53" y2="273.89"/><polyline class="cls-1" points="60.58 273.46 57.61 273.03 55.76 275.39"/><line class="cls-3" x1="52.42" y1="279.65" x2="40.76" y2="294.55"/><line class="cls-1" x1="39.09" y1="296.68" x2="37.24" y2="299.04"/><line class="cls-1" x1="48.74" y1="241.31" x2="49.81" y2="244.11"/><line class="cls-4" x1="51.53" y1="248.6" x2="57.55" y2="264.32"/><line class="cls-1" x1="58.41" y1="266.57" x2="59.49" y2="269.37"/></g></g><g id="text"><path d="M45.21,198.7H42.52V215h-16V198.7h-2.7v34.13h2.67v-15.3h16v15.3h2.69Z"/><path d="M74.79,198.7H72.12L56,227.76V198.7H53.3v34.13H56l16.13-29.11v29.11h2.64Z"/></g><g id="text-2"><path d="M21.47,303.21H18.8L2.7,332.27V303.21H0v34.12H2.7l16.12-29.11v29.11h2.65Z"/><path d="M51,303.21H48.3v16.28h-16V303.16H29.58v34.17h2.67V322h16v15.3H51Z"/><path d="M65.66,303.21h-9v1.11l4.85,6.54a15.79,15.79,0,0,1,1.7,2.78,5.35,5.35,0,0,1,.48,2.15,3.94,3.94,0,0,1-.76,2.55,2.57,2.57,0,0,1-2.13.94,2.75,2.75,0,0,1-2.3-1.09,4.44,4.44,0,0,1-.85-2.84H56.3A5.55,5.55,0,0,0,57.53,319a4.39,4.39,0,0,0,6.2.34l.1-.09A4.78,4.78,0,0,0,65,315.92a9,9,0,0,0-1.85-4.79l-.75-1.08-4.17-5.63h7.46Z"/></g><g id="text-3"><path d="M122,264.7h-2.67l-16.1,29.06V264.7h-2.7v34.12h2.7l16.12-29.11v29.11H122Z"/><path d="M151.47,264.7h-2.7V281h-16V264.7H130.1v34.12h2.67v-15.3h16v15.3h2.7Z"/><path d="M166.15,264.7H157.1v1.11l4.86,6.54a16.17,16.17,0,0,1,1.7,2.78,5.35,5.35,0,0,1,.48,2.15,4,4,0,0,1-.77,2.55,2.58,2.58,0,0,1-2.13.95,2.76,2.76,0,0,1-2.3-1.1,4.44,4.44,0,0,1-.85-2.84h-1.3a5.57,5.57,0,0,0,1.21,3.68,4.39,4.39,0,0,0,6.2.34l.1-.09a4.76,4.76,0,0,0,1.14-3.37,9,9,0,0,0-1.85-4.79l-.75-1.08-4.17-5.62h7.46Z"/></g></g></g></svg>