<svg xmlns="http://www.w3.org/2000/svg" viewBox="0 0 57.49 147.95"><defs><style>.cls-1{fill:none;stroke:#1e1e1c;stroke-miterlimit:10;stroke-width:2px;}.cls-2{fill:#1d1d1b;}</style></defs><g id="Warstwa_2" data-name="Warstwa 2"><g id="S"><g id="Warstwa_2-2" data-name="Warstwa 2"><g id="amino"><polyline class="cls-1" points="25.41 0.5 56.33 53.5 23.74 107.48"/></g></g><g id="text"><path class="cls-2" d="M22.1,134.13q0,6.6-2.89,10.21A9.81,9.81,0,0,1,11.09,148,9.91,9.91,0,0,1,3,144.34Q0,140.74,0,134.2v-7.43q0-6.58,2.93-10.23A9.83,9.83,0,0,1,11,112.89a9.83,9.83,0,0,1,8.16,3.66c1.93,2.44,2.9,5.86,2.9,10.29Zm-2.69-7.41c0-3.73-.72-6.54-2.16-8.41A7.35,7.35,0,0,0,11,115.49a7.4,7.4,0,0,0-6.12,2.76q-2.2,2.75-2.25,8.24v7.64c0,3.75.74,6.56,2.23,8.45a7.44,7.44,0,0,0,6.19,2.82,7.32,7.32,0,0,0,6.2-2.81q2.12-2.82,2.12-8.46Z"/><path class="cls-2" d="M50.65,147.49H48V131.15h-16v16.34H29.25V113.36h2.67v15.3H48v-15.3h2.7Z"/></g></g></g></svg>