<svg id="Warstwa_1" data-name="Warstwa 1" xmlns="http://www.w3.org/2000/svg" viewBox="0 0 60.06 146.09"><defs><style>.cls-1{fill:none;stroke:#1e1e1c;stroke-miterlimit:10;stroke-width:2px;}.cls-2{fill:#1d1d1b;}</style></defs><g id="Warstwa_2" data-name="Warstwa 2"><g id="U"><g id="Warstwa_2-2" data-name="Warstwa 2-2"><g id="amino"><polyline class="cls-1" points="27.98 0.5 58.9 53.5 26.31 107.48"/></g></g><g id="text"><path class="cls-2" d="M17.88,119.87a6.06,6.06,0,0,1-1.63,4.5c-1.08,1.1-3.11,2.14-6.08,3.14a18.84,18.84,0,0,0-6.54,3.36,8.05,8.05,0,0,0-2.74,6.37,8.26,8.26,0,0,0,2.7,6.38,10,10,0,0,0,7,2.46,9.5,9.5,0,0,0,7.12-2.86,10.12,10.12,0,0,0,2.77-7.36h-2.7a7.88,7.88,0,0,1-1.93,5.56,6.8,6.8,0,0,1-5.26,2.13,7.21,7.21,0,0,1-5.1-1.75,5.91,5.91,0,0,1-1.86-4.51,5.5,5.5,0,0,1,1.71-4.21A15.38,15.38,0,0,1,11,130.15a23.31,23.31,0,0,0,5.81-2.65,8.88,8.88,0,0,0,2.9-3.22,9.42,9.42,0,0,0,.94-4.36,8.24,8.24,0,0,0-2.71-6.46A10.24,10.24,0,0,0,10.78,111a11.94,11.94,0,0,0-5.47,1.24,9.16,9.16,0,0,0-3.87,3.53A10.4,10.4,0,0,0,0,121.23H2.67a7.44,7.44,0,0,1,2.18-5.67,8.16,8.16,0,0,1,5.88-2.06,7.52,7.52,0,0,1,5.2,1.73A5.91,5.91,0,0,1,17.88,119.87Z"/><path class="cls-2" d="M34.48,111a8.75,8.75,0,0,0-7,2.93q-2.53,2.94-2.58,8.35v3.09q0,5.58,2.44,8.76a8,8,0,0,0,6.7,3.17,7.6,7.6,0,0,0,6.29-2.69q2.18-2.7,2.22-8.25v-2.44H27.47V122.5a10.66,10.66,0,0,1,1.86-6.73,6.3,6.3,0,0,1,5.26-2.36,7.52,7.52,0,0,1,6.07,2.74L42,114.41C40.37,112.15,37.85,111,34.48,111ZM34,134.87a5.59,5.59,0,0,1-4.72-2.16,11.18,11.18,0,0,1-1.82-6.34H39.94v.71Q39.75,134.87,34,134.87Z"/></g></g></g></svg>