<svg xmlns="http://www.w3.org/2000/svg" viewBox="0 0 135.78 270.02"><defs><style>.cls-1,.cls-2{fill:none;stroke:#1e1e1c;stroke-miterlimit:10;stroke-width:2px;}.cls-2{stroke-dasharray:5.25 5.25;}.cls-3{fill:#1d1d1b;}</style></defs><g id="Warstwa_2" data-name="Warstwa 2"><g id="Y"><g id="Warstwa_2-2" data-name="Warstwa 2"><g id="amino"><polyline class="cls-1" points="32.08 0.5 1.16 53.5 33.75 107.48"/></g></g><g id="hex"><polygon class="cls-1" points="33.71 107.48 86.62 107.48 113.07 153.31 86.62 199.13 33.71 199.13 7.25 153.31 33.71 107.48"/><polyline class="cls-1" points="37.3 118.9 38.8 116.31 41.8 116.31"/><line class="cls-2" x1="47.05" y1="116.31" x2="75.9" y2="116.31"/><polyline class="cls-1" points="78.52 116.31 81.52 116.31 83.02 118.9"/><line class="cls-2" x1="85.65" y1="123.45" x2="100.07" y2="148.44"/><polyline class="cls-1" points="101.39 150.71 102.89 153.31 101.39 155.9"/><line class="cls-2" x1="98.76" y1="160.45" x2="84.34" y2="185.44"/><polyline class="cls-1" points="83.02 187.71 81.52 190.31 78.52 190.31"/><line class="cls-2" x1="73.28" y1="190.31" x2="44.42" y2="190.31"/><polyline class="cls-1" points="41.8 190.31 38.8 190.31 37.3 187.71"/><line class="cls-2" x1="34.68" y1="183.16" x2="20.25" y2="158.18"/><polyline class="cls-1" points="18.94 155.9 17.44 153.31 18.94 150.71"/><line class="cls-2" x1="21.56" y1="146.16" x2="35.99" y2="121.18"/></g><line class="cls-1" x1="86.62" y1="199.13" x2="106.53" y2="232.08"/><g id="text"><path class="cls-3" d="M107.23,256.19q0,6.62-2.89,10.22A9.81,9.81,0,0,1,96.22,270a9.88,9.88,0,0,1-8.12-3.61c-2-2.41-2.95-5.79-3-10.15v-7.43q0-6.59,2.93-10.23a10.9,10.9,0,0,1,16.27,0q2.9,3.66,2.9,10.29Zm-2.69-7.4c0-3.74-.72-6.54-2.16-8.42a8.23,8.23,0,0,0-12.33-.06c-1.47,1.84-2.22,4.58-2.25,8.24v7.64q0,5.63,2.23,8.45a7.44,7.44,0,0,0,6.19,2.82,7.29,7.29,0,0,0,6.2-2.81q2.11-2.81,2.12-8.46Z"/><path class="cls-3" d="M135.78,269.55h-2.7V253.21h-16v16.34h-2.67V235.43h2.67v15.3h16v-15.3h2.7Z"/></g></g></g></svg>