<svg xmlns="http://www.w3.org/2000/svg" viewBox="0 0 114.23 200.13"><defs><style>.cls-1,.cls-2{fill:none;stroke:#1e1e1c;stroke-miterlimit:10;stroke-width:2px;}.cls-2{stroke-dasharray:5.25 5.25;}</style></defs><g id="Warstwa_2" data-name="Warstwa 2"><g id="F"><g id="Warstwa_2-2" data-name="Warstwa 2"><g id="amino"><polyline class="cls-1" points="82.14 0.5 113.06 53.5 80.48 107.48"/></g></g><g id="hex"><polygon class="cls-1" points="80.52 107.48 27.61 107.48 1.16 153.31 27.61 199.13 80.52 199.13 106.97 153.31 80.52 107.48"/><polyline class="cls-1" points="76.93 118.9 75.43 116.31 72.43 116.31"/><line class="cls-2" x1="67.18" y1="116.31" x2="38.33" y2="116.31"/><polyline class="cls-1" points="35.7 116.31 32.7 116.31 31.2 118.9"/><line class="cls-2" x1="28.58" y1="123.45" x2="14.15" y2="148.44"/><polyline class="cls-1" points="12.84 150.71 11.34 153.31 12.84 155.9"/><line class="cls-2" x1="15.46" y1="160.45" x2="29.89" y2="185.44"/><polyline class="cls-1" points="31.2 187.71 32.7 190.31 35.7 190.31"/><line class="cls-2" x1="40.95" y1="190.31" x2="69.8" y2="190.31"/><polyline class="cls-1" points="72.43 190.31 75.43 190.31 76.93 187.71"/><line class="cls-2" x1="79.55" y1="183.16" x2="93.98" y2="158.18"/><polyline class="cls-1" points="95.29 155.9 96.79 153.31 95.29 150.71"/><line class="cls-2" x1="92.67" y1="146.16" x2="78.24" y2="121.18"/></g></g></g></svg>