<svg xmlns="http://www.w3.org/2000/svg" viewBox="0 0 124.63 229.75"><defs><style>.cls-1{fill:none;stroke:#1e1e1c;stroke-miterlimit:10;stroke-width:2px;}.cls-2{fill:#010202;}.cls-3{fill:#010101;}</style></defs><g id="Warstwa_2" data-name="Warstwa 2"><g id="Q"><g id="Warstwa_2-2" data-name="Warstwa 2"><g id="amino"><polyline class="cls-1" points="79.81 190.63 60.88 159.63 60.88 159.63 91.8 105.63 60.88 52.8 91.05 0.5"/><line class="cls-1" x1="63.44" y1="155.59" x2="25.72" y2="154.8"/><line class="cls-1" x1="63.44" y1="163.96" x2="25.72" y2="163.16"/></g></g><path id="text" class="cls-2" d="M0,163.57q0,6.62,2.9,10.22a9.83,9.83,0,0,0,8.1,3.57,9.88,9.88,0,0,0,8.12-3.61c2-2.4,3-5.79,3-10.14v-7.43q0-6.6-2.93-10.23a9.85,9.85,0,0,0-8.11-3.65A9.83,9.83,0,0,0,2.92,146Q0,149.57,0,156.25Zm2.7-7.4c0-3.74.72-6.54,2.16-8.42A8.21,8.21,0,0,1,16.45,147a8.38,8.38,0,0,1,.73.73c1.47,1.83,2.22,4.58,2.25,8.23v7.59q0,5.63-2.22,8.45A7.43,7.43,0,0,1,11,174.81,7.32,7.32,0,0,1,4.8,172c-1.41-1.88-2.11-4.7-2.12-8.47Z"/><g id="text-2" data-name="text"><path class="cls-3" d="M80.44,229.75H77.77l-16.1-29.07v29.07H59V195.62h2.7l16.12,29.11V195.62h2.65Z"/><path class="cls-3" d="M110,229.75h-2.7V213.41h-16v16.34H88.55V195.62h2.67v15.31h16V195.62H110Z"/><path class="cls-3" d="M124.63,229.75h-9v-1.12l4.85-6.54a16.22,16.22,0,0,0,1.7-2.77,5.42,5.42,0,0,0,.48-2.16,3.94,3.94,0,0,0-.77-2.55,2.58,2.58,0,0,0-2.13-.94,2.75,2.75,0,0,0-2.29,1.09,4.49,4.49,0,0,0-.86,2.84h-1.3a5.55,5.55,0,0,1,1.23-3.69,4.39,4.39,0,0,1,6.3-.25,4.73,4.73,0,0,1,1.14,3.37,9,9,0,0,1-1.85,4.79l-.75,1.08-4.17,5.63h7.46Z"/></g></g></g></svg>